<?xml version="1.0" encoding="UTF-8" standalone="no"?><!-- Generator: Gravit.io --><svg xmlns="http://www.w3.org/2000/svg" xmlns:xlink="http://www.w3.org/1999/xlink" style="isolation:isolate" viewBox="0 0 98.783 98.4" width="98.783pt" height="98.4pt"><defs><clipPath id="_clipPath_edOAuyBhjEoc4vZ3oeHqNqXebf7YNtfH"><rect width="98.783" height="98.4"/></clipPath></defs><g clip-path="url(#_clipPath_edOAuyBhjEoc4vZ3oeHqNqXebf7YNtfH)"><rect x="43" y="0" width="14" height="64.4" transform="matrix(1,0,0,1,0,0)" fill="rgb(255,255,255)"/><path d=" M 71.639 51.35 L 64.719 60.053 C 63.001 62.212 60.212 65.719 58.494 67.879 L 51.573 76.581 C 50.705 77.673 49.295 77.673 48.427 76.581 L 41.506 67.879 C 39.788 65.719 36.999 62.212 35.281 60.053 L 28.361 51.35 C 27.492 50.259 27.92 49.372 29.315 49.372 L 45 49.372 C 47.76 49.372 52.24 49.372 55 49.372 L 70.685 49.372 C 72.08 49.372 72.508 50.259 71.639 51.35 Z " fill="rgb(255,255,255)"/><path d="M 0 66.4 L 15.304 66.4 L 15.304 98.4 L 6.957 98.4 C 3.117 98.4 0 95.283 0 91.443 L 0 66.4 Z" style="stroke:none;fill:#FFFFFF;stroke-miterlimit:10;"/><path d="M 83.478 66.4 L 98.783 66.4 L 98.783 91.443 C 98.783 95.283 95.665 98.4 91.826 98.4 L 83.478 98.4 L 83.478 66.4 Z" style="stroke:none;fill:#FFFFFF;stroke-miterlimit:10;"/><rect x="9.739" y="84.487" width="80.261" height="13.913" transform="matrix(1,0,0,1,0,0)" fill="rgb(255,255,255)"/></g></svg>