<?xml version="1.0" encoding="UTF-8" standalone="no"?><!-- Generator: Gravit.io --><svg xmlns="http://www.w3.org/2000/svg" xmlns:xlink="http://www.w3.org/1999/xlink" style="isolation:isolate" viewBox="0 0 87 66" width="87pt" height="66pt"><defs><clipPath id="_clipPath_fE8BpWgCSNl2luZK5lCnF2IFAsL5cTOj"><rect width="87" height="66"/></clipPath></defs><g clip-path="url(#_clipPath_fE8BpWgCSNl2luZK5lCnF2IFAsL5cTOj)"><path d="M 3.92 10 L 83.08 10 C 85.244 10 87 11.756 87 13.92 L 87 62.08 C 87 64.244 85.244 66 83.08 66 L 3.92 66 C 1.756 66 0 64.244 0 62.08 L 0 13.92 C 0 11.756 1.756 10 3.92 10 Z" style="stroke:none;fill:#FFFFFF;stroke-miterlimit:10;"/><path d="M 2.659 0 L 37 0 L 37 19.341 C 37 20.809 35.809 22 34.341 22 L 2.659 22 C 1.191 22 0 20.809 0 19.341 L 0 2.659 C 0 1.191 1.191 0 2.659 0 Z" style="stroke:none;fill:#FFFFFF;stroke-miterlimit:10;"/><polygon points="44.25,12.557,29.75,12.557,37,0" fill="rgb(255,255,255)"/><path d="M 9.561 13.616 L 77.439 13.616 C 79.818 13.616 81.75 15.547 81.75 17.927 L 81.75 58.073 C 81.75 60.453 79.818 62.384 77.439 62.384 L 9.561 62.384 C 7.182 62.384 5.25 60.453 5.25 58.073 L 5.25 17.927 C 5.25 15.547 7.182 13.616 9.561 13.616 Z" style="stroke:none;fill:#100A09;stroke-miterlimit:10;"/></g></svg>