<?xml version="1.0" encoding="UTF-8" standalone="no"?><!-- Generator: Gravit.io --><svg xmlns="http://www.w3.org/2000/svg" xmlns:xlink="http://www.w3.org/1999/xlink" style="isolation:isolate" viewBox="0 0 87 66" width="87pt" height="66pt"><defs><clipPath id="_clipPath_rBkAyio4bzm3Z6EVZcc8nkuGs8TLX07r"><rect width="87" height="66"/></clipPath></defs><g clip-path="url(#_clipPath_rBkAyio4bzm3Z6EVZcc8nkuGs8TLX07r)"><path d="M 3.92 10 L 83.08 10 C 85.244 10 87 11.756 87 13.92 L 87 62.08 C 87 64.244 85.244 66 83.08 66 L 3.92 66 C 1.756 66 0 64.244 0 62.08 L 0 13.92 C 0 11.756 1.756 10 3.92 10 Z" style="stroke:none;fill:#FFFFFF;stroke-miterlimit:10;"/><path d="M 2.659 0 L 37 0 L 37 19.341 C 37 20.809 35.809 22 34.341 22 L 2.659 22 C 1.191 22 0 20.809 0 19.341 L 0 2.659 C 0 1.191 1.191 0 2.659 0 Z" style="stroke:none;fill:#FFFFFF;stroke-miterlimit:10;"/><polygon points="44.25,12.557,29.75,12.557,37,0" fill="rgb(255,255,255)"/></g></svg>