<svg xmlns="http://www.w3.org/2000/svg" width="256.4" height="291.4" viewBox="0 0 256.4 291.4">
  <g id="javascript" transform="translate(5 -113.4)">
    <path id="path5113" d="M18.8,375.4-5,113.4l256.4.1L227.8,375.2,123,404.8Zm189.7-14.3,19.9-224.4h-105l.8,247.5ZM113.6,169.6H88.1l-.3,134.3L38.3,290.4l.1,30.7,75.2,20.3V169.6Z" fill="#d4b830"/>
    <path id="path5159" d="M105.2,338.9c-3.3-1-19.6-5.4-36.2-9.9l-30.1-8.1V305.8c0-14.8,0-15.1,1.5-14.6.8.3,11.8,3.3,24.4,6.8l22.9,6.3.2-67,.2-67h25v85.2c0,67.7-.2,85.2-.9,85.2-.5-.1-3.7-.9-7-1.8Z" fill="rgba(235,235,235,0)" opacity="0.986"/>
    <path id="path5157" d="M38.4,321.1l-.1-30.7s31.6,8.9,49.5,13.5l.3-134.2h25.5V341.4L38.4,321.1Z" fill="rgba(235,235,235,0.92)" opacity="0.986"/>
    <path id="path5117" d="M123.4,136.6h105L208.5,361l-85.1,23.1Zm79.7,186.8,6.9-83.9-51,5.7V200.4l54.4-.2,2.2-30.6-82.1.4,1.1,111.4,49.6-8.5-.7,24.8-50,13.3.5,30.4,69.1-18Z" fill="#fdd83c"/>
  </g>
</svg>
