<?xml version="1.0" encoding="UTF-8" standalone="no"?><!-- Generator: Gravit.io --><svg xmlns="http://www.w3.org/2000/svg" xmlns:xlink="http://www.w3.org/1999/xlink" style="isolation:isolate" viewBox="0 0 89.788 100" width="89.788pt" height="100pt"><defs><clipPath id="_clipPath_PDborgOJarXsra7arEl3MJsLtlSvslKs"><rect width="89.788" height="100"/></clipPath></defs><g clip-path="url(#_clipPath_PDborgOJarXsra7arEl3MJsLtlSvslKs)"><rect x="0" y="0" width="59" height="100" transform="matrix(1,0,0,1,0,0)" fill="rgb(255,255,255)"/><polygon points="89.788,32.897,46,42.946,59.191,0" fill="rgb(255,255,255)"/><rect x="48.788" y="32.897" width="41" height="67.103" transform="matrix(1,0,0,1,0,0)" fill="rgb(255,255,255)"/><rect x="3.5" y="5" width="52" height="90" transform="matrix(1,0,0,1,0,0)" fill="rgb(0,0,0)"/><polygon points="82.958,32.924,43.812,41.998,55.306,4.297" fill="rgb(0,0,0)"/><rect x="41.119" y="32.897" width="41.859" height="62.103" transform="matrix(1,0,0,1,0,0)" fill="rgb(0,0,0)"/><rect x="46" y="0" width="13" height="5" transform="matrix(1,0,0,1,0,0)" fill="rgb(255,255,255)"/><path d="M 46.504 40.176 L 46.504 63.512 C 46.504 65.989 45.298 68 43.812 68 L 43.812 68 C 42.326 68 41.119 65.989 41.119 63.512 L 41.119 40.176 C 41.119 37.699 42.326 35.688 43.812 35.688 L 43.812 35.688 C 45.298 35.688 46.504 37.699 46.504 40.176 Z" style="stroke:none;fill:#FFFFFF;stroke-miterlimit:10;"/><path d="M 32.144 49.152 L 55.48 49.152 C 57.957 49.152 59.968 50.358 59.968 51.844 L 59.968 51.844 C 59.968 53.33 57.957 54.537 55.48 54.537 L 32.144 54.537 C 29.667 54.537 27.656 53.33 27.656 51.844 L 27.656 51.844 C 27.656 50.358 29.667 49.152 32.144 49.152 Z" style="stroke:none;fill:#FFFFFF;stroke-miterlimit:10;"/></g></svg>