<?xml version="1.0" encoding="UTF-8" standalone="no"?><!-- Generator: Gravit.io --><svg xmlns="http://www.w3.org/2000/svg" xmlns:xlink="http://www.w3.org/1999/xlink" style="isolation:isolate" viewBox="0 0 65 91.782" width="65pt" height="91.782pt"><defs><clipPath id="_clipPath_gauglpildKlt5Q7SdYglVM8YieaAWAhH"><rect width="65" height="91.782"/></clipPath></defs><g clip-path="url(#_clipPath_gauglpildKlt5Q7SdYglVM8YieaAWAhH)"><ellipse vector-effect="non-scaling-stroke" cx="32.3996913580247" cy="46.986815571727305" rx="19.760802469135797" ry="28.39630399550238" fill="rgb(255,255,255)"/><path d="M 4.749 67.744 L 60.251 67.744 C 62.872 67.744 65 69.871 65 72.492 L 65 77.315 C 65 79.936 62.872 82.064 60.251 82.064 L 4.749 82.064 C 2.128 82.064 0 79.936 0 77.315 L 0 72.492 C 0 69.871 2.128 67.744 4.749 67.744 Z" style="stroke:none;fill:#FFFFFF;stroke-miterlimit:10;"/><polygon points="64.718,69.45,31.083,69.45,47.901,30" fill="rgb(255,255,255)"/><polygon points="28.281,72.346,0,71.69,14.806,35.798" fill="rgb(255,255,255)"/><ellipse vector-effect="non-scaling-stroke" cx="32.399691358024704" cy="11.99878774093652" rx="4.814814814814811" ry="11.998787740936518" fill="rgb(255,255,255)"/><ellipse vector-effect="non-scaling-stroke" cx="32.50000000000002" cy="82.06401129937889" rx="9.228395061728392" ry="9.717965444807149" fill="rgb(255,255,255)"/></g></svg>