<?xml version="1.0" encoding="UTF-8" standalone="no"?><!-- Generator: Gravit.io --><svg xmlns="http://www.w3.org/2000/svg" xmlns:xlink="http://www.w3.org/1999/xlink" style="isolation:isolate" viewBox="0 0 87.933 92.881" width="87.933pt" height="92.881pt"><defs><clipPath id="_clipPath_QufJmTHam7THu5yvhMs622kgyOcR2H0a"><rect width="87.933" height="92.881"/></clipPath></defs><g clip-path="url(#_clipPath_QufJmTHam7THu5yvhMs622kgyOcR2H0a)"><path d="M 5 81.881 L 81 81.881 C 83.76 81.881 86 84.122 86 86.881 L 86 87.881 C 86 90.641 83.76 92.881 81 92.881 L 5 92.881 C 2.24 92.881 0 90.641 0 87.881 L 0 86.881 C 0 84.122 2.24 81.881 5 81.881 Z" style="stroke:none;fill:#FFFFFF;stroke-miterlimit:10;"/><polygon points="21.219,75.112,2.37,78.881,8.353,61.012" fill="rgb(255,255,255)"/><rect x="6.5" y="33.087" width="73" height="18.508" transform="matrix(0.738,-0.675,0.675,0.738,-17.306,40.11)" fill="rgb(255,255,255)"/><path d="M 80.597 1.595 L 86.596 8.047 C 88.475 10.068 88.359 13.235 86.338 15.114 L 76.963 23.83 L 64.155 10.053 L 73.53 1.337 C 75.551 -0.542 78.718 -0.426 80.597 1.595 Z" style="stroke:none;fill:#FFFFFF;stroke-miterlimit:10;"/></g></svg>